<mxfile host="65bd71144e">
    <diagram id="knaENhfYya4jEOJo3UDg" name="Page-1">
        <mxGraphModel dx="1757" dy="1015" grid="1" gridSize="10" guides="1" tooltips="1" connect="1" arrows="1" fold="1" page="1" pageScale="1" pageWidth="850" pageHeight="1100" math="0" shadow="0">
            <root>
                <mxCell id="0"/>
                <mxCell id="1" parent="0"/>
                <mxCell id="2" value="" style="rounded=1;whiteSpace=wrap;html=1;arcSize=4;strokeWidth=2;sketch=0;shadow=1;glass=0;fontColor=#ffffff;fillColor=#1ba1e2;strokeColor=#006EAF;" vertex="1" parent="1">
                    <mxGeometry x="50" y="40" width="650" height="640" as="geometry"/>
                </mxCell>
                <mxCell id="JpHulWTNCzh99GzkldUL-1" value="Functions" style="shape=image;verticalLabelPosition=bottom;labelBackgroundColor=none;verticalAlign=top;aspect=fixed;imageAspect=0;image=data:image/svg+xml,PHN2ZyB4bWxucz0iaHR0cDovL3d3dy53My5vcmcvMjAwMC9zdmciIHdpZHRoPSI5Mi44MDA0OTg5NjI0MDIzNCIgaGVpZ2h0PSIxMTEuOTk5MzIwOTgzODg2NzIiIHZlcnNpb249IjEuMSIgdmlld0JveD0iMjEuMzM5NTAwNDI3MjQ2MDk0IDUuMzMyNzkxMzI4NDMwMTc2IDkyLjgwMDQ5ODk2MjQwMjM0IDExMS45OTkzMjA5ODM4ODY3MiI+JiN4YTsgPHBhdGggZD0ibTExNC4xNCA1Ny41OTgtOC41MzkxLTYuMzk4NC0xNC45MyAxOS45MS0xMy4zMzItMTcuNzc3aC0yMi4yMDNsNy43NzczLTM2LjkxOGMwLjEwMTU2LTAuNDgwNDcgMS4wOTM4LTAuNDY4NzUgMS4wOTM4IDAuMTE3MTl2Mi4xMzI4aDEwLjY2NHYtMi4xMzI4YzAtNi4xNzU4LTUuMDIzNC0xMS4xOTktMTEuMjQyLTExLjE5OS01LjI2OTUgMC05Ljg3ODkgMy43MzgzLTEwLjk2MSA4Ljg5MDZsLTguMjI2NiAzOS4xMDloLTEyLjIzNHYxMC42NjhoOS45ODgzbC04Ljg5ODQgNDIuMjVjLTAuMTA1NDcgMC40ODA0Ny0xLjA4OTggMC40Njg3NS0xLjA4OTgtMC4xMTMyOHYtMi4xMzY3aC0xMC42Njh2Mi4xMzY3YzAgNi4xNzU4IDUuMDE5NSAxMS4xOTUgMTEuMjM4IDExLjE5NSA1LjI2OTUgMCA5Ljg4MjgtMy43MzgzIDEwLjk1Ny04Ljg5MDZsOS4zNTU1LTQ0LjQ0MWgxOS4xMTdsMTEuMTkxIDE0LjkzNCAwLjgwODU5IDEuMDY2NC0xNi44MDkgMjIuMzk4IDguNTM5MSA2LjQwNjIgMTQuOTM0LTE5LjkxNCAxNC45MyAxOS45MTQgOC41MzkxLTYuNDA2Mi0xNi44MDEtMjIuMzk4eiIgZmlsbC1ydWxlPSJldmVub2RkIi8+JiN4YTs8L3N2Zz4=;fontSize=24;fontStyle=1;" parent="1" vertex="1">
                    <mxGeometry x="110" y="70" width="49.82" height="60" as="geometry"/>
                </mxCell>
                <mxCell id="JpHulWTNCzh99GzkldUL-3" value="Servers" style="shape=image;verticalLabelPosition=bottom;labelBackgroundColor=none;verticalAlign=top;aspect=fixed;imageAspect=0;image=data:image/svg+xml,PHN2ZyB4bWxucz0iaHR0cDovL3d3dy53My5vcmcvMjAwMC9zdmciIHdpZHRoPSI5MiIgaGVpZ2h0PSIxMTgiIHZlcnNpb249IjEuMSIgdmlld0JveD0iMTggNCA5MiAxMTgiPiYjeGE7IDxnPiYjeGE7ICA8cGF0aCBkPSJtMzggMTE4aDUydjRoLTUyeiIvPiYjeGE7ICA8cGF0aCBkPSJtMTEwIDM2di0zMmgtOTJ2MzJoOHY2aC04djMyaDh2NmgtOHYzMmg4djEwaDR2LTEwaDY4djEwaDR2LTEwaDh2LTMyaC04di02aDh2LTMyaC04di02em0tODgtMjhoODR2MjRoLTg0em04NCAxMDBoLTg0di0yNGg4NHptLTgtMjhoLTY4di02aDY4em04LTEwaC04NHYtMjRoODR6bS04LTI4aC02OHYtNmg2OHoiLz4mI3hhOyAgPHBhdGggZD0ibTk2IDE0Yy0zLjMwODYgMC02IDIuNjkxNC02IDZzMi42OTE0IDYgNiA2IDYtMi42OTE0IDYtNi0yLjY5MTQtNi02LTZ6bTAgOGMtMS4xMDU1IDAtMi0wLjg5ODQ0LTItMnMwLjg5NDUzLTIgMi0yIDIgMC44OTg0NCAyIDItMC44OTQ1MyAyLTIgMnoiLz4mI3hhOyAgPHBhdGggZD0ibTgyIDE0aDR2NGgtNHoiLz4mI3hhOyAgPHBhdGggZD0ibTc0IDE0aDR2NGgtNHoiLz4mI3hhOyAgPHBhdGggZD0ibTY2IDE0aDR2NGgtNHoiLz4mI3hhOyAgPHBhdGggZD0ibTgyIDIyaDR2NGgtNHoiLz4mI3hhOyAgPHBhdGggZD0ibTc0IDIyaDR2NGgtNHoiLz4mI3hhOyAgPHBhdGggZD0ibTY2IDIyaDR2NGgtNHoiLz4mI3hhOyAgPHBhdGggZD0ibTM0IDE0aDR2MTJoLTR6Ii8+JiN4YTsgIDxwYXRoIGQ9Im0yNiAxNGg0djEyaC00eiIvPiYjeGE7ICA8cGF0aCBkPSJtNDIgMTRoNHYxMmgtNHoiLz4mI3hhOyAgPHBhdGggZD0ibTk2IDY0YzMuMzA4NiAwIDYtMi42OTE0IDYtNnMtMi42OTE0LTYtNi02LTYgMi42OTE0LTYgNiAyLjY5MTQgNiA2IDZ6bTAtOGMxLjEwNTUgMCAyIDAuODk4NDQgMiAycy0wLjg5NDUzIDItMiAyLTItMC44OTg0NC0yLTIgMC44OTQ1My0yIDItMnoiLz4mI3hhOyAgPHBhdGggZD0ibTgyIDUyaDR2NGgtNHoiLz4mI3hhOyAgPHBhdGggZD0ibTc0IDUyaDR2NGgtNHoiLz4mI3hhOyAgPHBhdGggZD0ibTY2IDUyaDR2NGgtNHoiLz4mI3hhOyAgPHBhdGggZD0ibTgyIDYwaDR2NGgtNHoiLz4mI3hhOyAgPHBhdGggZD0ibTc0IDYwaDR2NGgtNHoiLz4mI3hhOyAgPHBhdGggZD0ibTY2IDYwaDR2NGgtNHoiLz4mI3hhOyAgPHBhdGggZD0ibTM0IDUyaDR2MTJoLTR6Ii8+JiN4YTsgIDxwYXRoIGQ9Im0yNiA1Mmg0djEyaC00eiIvPiYjeGE7ICA8cGF0aCBkPSJtNDIgNTJoNHYxMmgtNHoiLz4mI3hhOyAgPHBhdGggZD0ibTk2IDEwMmMzLjMwODYgMCA2LTIuNjkxNCA2LTZzLTIuNjkxNC02LTYtNi02IDIuNjkxNC02IDYgMi42OTE0IDYgNiA2em0wLThjMS4xMDU1IDAgMiAwLjg5NDUzIDIgMnMtMC44OTQ1MyAyLTIgMi0yLTAuODk0NTMtMi0yIDAuODk0NTMtMiAyLTJ6Ii8+JiN4YTsgIDxwYXRoIGQ9Im04MiA5MGg0djRoLTR6Ii8+JiN4YTsgIDxwYXRoIGQ9Im03NCA5MGg0djRoLTR6Ii8+JiN4YTsgIDxwYXRoIGQ9Im02NiA5MGg0djRoLTR6Ii8+JiN4YTsgIDxwYXRoIGQ9Im04MiA5OGg0djRoLTR6Ii8+JiN4YTsgIDxwYXRoIGQ9Im03NCA5OGg0djRoLTR6Ii8+JiN4YTsgIDxwYXRoIGQ9Im02NiA5OGg0djRoLTR6Ii8+JiN4YTsgIDxwYXRoIGQ9Im0zNCA5MGg0djEyaC00eiIvPiYjeGE7ICA8cGF0aCBkPSJtMjYgOTBoNHYxMmgtNHoiLz4mI3hhOyAgPHBhdGggZD0ibTQyIDkwaDR2MTJoLTR6Ii8+JiN4YTsgPC9nPiYjeGE7PC9zdmc+;fontSize=24;fontStyle=1" parent="1" vertex="1">
                    <mxGeometry x="560" y="500" width="92" height="118" as="geometry"/>
                </mxCell>
                <mxCell id="JpHulWTNCzh99GzkldUL-4" value="Hypervisors" style="shape=image;verticalLabelPosition=bottom;labelBackgroundColor=none;verticalAlign=top;aspect=fixed;imageAspect=0;image=data:image/svg+xml,PHN2ZyB4bWxucz0iaHR0cDovL3d3dy53My5vcmcvMjAwMC9zdmciIHdpZHRoPSIxMTYiIGhlaWdodD0iMTE1Ljk5OTYxODUzMDI3MzQ0IiB2ZXJzaW9uPSIxLjEiIHZpZXdCb3g9IjYgNi4wMDAzODAwMzkyMTUwODggMTE2IDExNS45OTk2MTg1MzAyNzM0NCI+JiN4YTsgPGc+JiN4YTsgIDxwYXRoIGQ9Im02IDk0aDI4djI4aC0yOHoiLz4mI3hhOyAgPHBhdGggZD0ibTUwIDk0aDI4djI4aC0yOHoiLz4mI3hhOyAgPHBhdGggZD0ibTk0IDk0aDI4djI4aC0yOHoiLz4mI3hhOyAgPHBhdGggZD0ibTgzLjU2MiAyOS44NDhjLTAuNTAzOTEtMi4zOTA2LTEuNDQ5Mi00LjY1NjItMi44MDA4LTYuNzM4My0wLjQ4ODI4LTAuNzUtMC40MTc5Ny0xLjczNDQgMC4xNzE4OC0yLjQwNjJsNC4zNzExLTQuOTk2MS0zLjAxMTctMy4wMTE3LTQuOTk2MSA0LjM3MTFjLTAuNjc1NzggMC41ODk4NC0xLjY2MDIgMC42NjAxNi0yLjQwNjIgMC4xNzE4OC0yLjA3ODEtMS4zNTU1LTQuMzQ3Ny0yLjI5NjktNi43MzgzLTIuODAwOC0wLjg3NS0wLjE4NzUtMS41MjM0LTAuOTI5NjktMS41ODItMS44MjQybC0wLjQ0MTQxLTYuNjEzM2gtNC4yNTc4bC0wLjQ0MTQxIDYuNjEzM2MtMC4wNTg1OTQgMC44OTQ1My0wLjcwNzAzIDEuNjM2Ny0xLjU4MiAxLjgyNDItMi4zOTA2IDAuNTAzOTEtNC42NTYyIDEuNDQ5Mi02LjczODMgMi44MDA4LTAuNzUgMC40ODgyOC0xLjczNDQgMC40MTc5Ny0yLjQwNjItMC4xNzE4OGwtNC45OTYxLTQuMzcxMS0zLjAxMTcgMy4wMTE3IDQuMzcxMSA0Ljk5NjFjMC41ODk4NCAwLjY3NTc4IDAuNjYwMTYgMS42NTYyIDAuMTcxODggMi40MDYyLTEuMzU1NSAyLjA3ODEtMi4yOTY5IDQuMzQ3Ny0yLjgwMDggNi43MzgzLTAuMTg3NSAwLjg3NS0wLjkyOTY5IDEuNTIzNC0xLjgyNDIgMS41ODJsLTYuNjEzMyAwLjQ0MTQxdjQuMjU3OGw2LjYxMzMgMC40NDE0MWMwLjg5NDUzIDAuMDU4NTk0IDEuNjM2NyAwLjcwNzAzIDEuODI0MiAxLjU4MiAwLjUwMzkxIDIuMzkwNiAxLjQ0OTIgNC42NTYyIDIuODAwOCA2LjczODMgMC40ODgyOCAwLjc1IDAuNDE3OTcgMS43MzQ0LTAuMTcxODggMi40MDYybC00LjM3MTEgNC45OTYxIDMuMDExNyAzLjAxMTcgNC45OTYxLTQuMzcxMWMwLjY3NTc4LTAuNTg5ODQgMS42NjAyLTAuNjYwMTYgMi40MDYyLTAuMTcxODggMi4wNzgxIDEuMzU1NSA0LjM0NzcgMi4yOTY5IDYuNzM4MyAyLjgwMDggMC44NzUgMC4xODc1IDEuNTIzNCAwLjkyOTY5IDEuNTgyIDEuODI0MmwwLjQ0MTQxIDYuNjEzM2g0LjI1NzhsMC40NDE0MS02LjYxMzNjMC4wNTg1OTQtMC44OTQ1MyAwLjcwNzAzLTEuNjM2NyAxLjU4Mi0xLjgyNDIgMi4zOTA2LTAuNTAzOTEgNC42NTYyLTEuNDQ5MiA2LjczODMtMi44MDA4IDAuNzUtMC40ODgyOCAxLjczNDQtMC40MjE4OCAyLjQwNjIgMC4xNzE4OGw0Ljk5NjEgNC4zNzExIDMuMDExNy0zLjAxMTctNC4zNzExLTQuOTk2MWMtMC41ODk4NC0wLjY3NTc4LTAuNjYwMTYtMS42NTYyLTAuMTcxODgtMi40MDYyIDEuMzU1NS0yLjA3ODEgMi4yOTY5LTQuMzQ3NyAyLjgwMDgtNi43MzgzIDAuMTg3NS0wLjg3NSAwLjkyOTY5LTEuNTIzNCAxLjgyNDItMS41ODJsNi42MTMzLTAuNDQxNDF2LTQuMjU3OGwtNi42MTMzLTAuNDQxNDFjLTAuODk0NTMtMC4wNTg1OTQtMS42NDA2LTAuNzA3MDMtMS44MjQyLTEuNTgyem0tMTkuNTYyIDIwLjE1MmMtOC44MjAzIDAtMTYtNy4xNzk3LTE2LTE2czcuMTc5Ny0xNiAxNi0xNiAxNiA3LjE3OTcgMTYgMTYtNy4xNzk3IDE2LTE2IDE2eiIvPiYjeGE7ICA8cGF0aCBkPSJtNzYgMzRjMCA2LjYyODktNS4zNzExIDEyLTEyIDEycy0xMi01LjM3MTEtMTItMTIgNS4zNzExLTEyIDEyLTEyIDEyIDUuMzcxMSAxMiAxMiIvPiYjeGE7ICA8cGF0aCBkPSJtNjIgNjRoNHYyMmgtNHoiLz4mI3hhOyAgPHBhdGggZD0ibTIyIDg2aC00di0xMGMwLTEuMTA1NSAwLjg5NDUzLTIgMi0yaDI0di0xMGg0djEyYzAgMS4xMDU1LTAuODk0NTMgMi0yIDJoLTI0eiIvPiYjeGE7ICA8cGF0aCBkPSJtMTEwIDg2aC00di04aC0yNGMtMS4xMDU1IDAtMi0wLjg5NDUzLTItMnYtMTJoNHYxMGgyNGMxLjEwNTUgMCAyIDAuODk0NTMgMiAyeiIvPiYjeGE7IDwvZz4mI3hhOzwvc3ZnPg==;fontSize=24;fontStyle=1" parent="1" vertex="1">
                    <mxGeometry x="425" y="370" width="116" height="116" as="geometry"/>
                </mxCell>
                <mxCell id="JpHulWTNCzh99GzkldUL-5" value="Containers" style="shape=image;verticalLabelPosition=bottom;labelBackgroundColor=none;verticalAlign=top;aspect=fixed;imageAspect=0;image=data:image/svg+xml,PHN2ZyB4bWxucz0iaHR0cDovL3d3dy53My5vcmcvMjAwMC9zdmciIHdpZHRoPSIxMTIuMDA5NjM1OTI1MjkyOTciIGhlaWdodD0iMTExLjYwNTM3NzE5NzI2NTYyIiB2ZXJzaW9uPSIxLjEiIHZpZXdCb3g9IjcuOTExMDk2NTcyODc1OTc3IDguMjI2NTYwNTkyNjUxMzY3IDExMi4wMDk2MzU5MjUyOTI5NyAxMTEuNjA1Mzc3MTk3MjY1NjIiPiYjeGE7IDxnPiYjeGE7ICA8cGF0aCBkPSJtMTE4LjE3IDExMy42OWMtMy4xNTYyIDAuMTA5MzgtNi4zMTI1IDAuMjIyNjYtOS40NzI3IDAuMzMyMDMtNy4yNjk1IDAuMjUzOTEtMTQuNTM5IDAuNTA3ODEtMjEuODA5IDAuNzY1NjItOC4wNzgxIDAuMjg1MTYtMTYuMTU2IDAuNTY2NDEtMjQuMjM0IDAuODUxNTYtNS41ODU5IDAuMTk1MzEtMTEuMTY4IDAuMzkwNjItMTYuNzU0IDAuNTg1OTQtMC44MDg1OSAwLjAyNzM0NC0xLjY3MTkgMC4xNDg0NC0yLjQ4MDUgMC4wODU5MzgtMS43NjU2LTAuMTM2NzItMy41MzEyLTAuMjczNDQtNS4yOTY5LTAuNDEwMTYtNy42MjUtMC41OTM3NS0xNS4yNS0xLjE4MzYtMjIuODc5LTEuNzc3My0xLjg1OTQtMC4xNDQ1My0zLjcxODgtMC4yODkwNi01LjU4Mi0wLjQzMzU5bDEuNzUgMS43NXYtMTIuNzc3LTI0LjA2Mi0xMy45NTMtMC4wNTA3ODJjLTAuNTgyMDMgMC41ODIwMy0xLjE2OCAxLjE2OC0xLjc1IDEuNzUgNS40NDUzLTAuNjQwNjIgMTAuODkxLTEuMjgxMiAxNi4zMzYtMS45MjE5IDUuODAwOC0wLjY4MzU5IDExLjYwMi0xLjM2MzMgMTcuNDA2LTIuMDQ2OSAwLjE2MDE2LTAuMDE5NTMxIDAuMzM1OTQgMC4wMzEyNSAwLjQ5NjA5IDAuMDUwNzgyIDAuNTU4NTkgMC4wNzAzMTIgMS4xMTMzIDAuMTM2NzIgMS42NzE5IDAuMjA3MDMgMi4xNjAyIDAuMjY1NjIgNC4zMTY0IDAuNTMxMjUgNi40NzY2IDAuODAwNzggNy4wODIgMC44NzUgMTQuMTYgMS43NDYxIDIxLjI0MiAyLjYyMTEgOC4wNjY0IDAuOTk2MDkgMTYuMTM3IDEuOTkyMiAyNC4yMDMgMi45ODQ0IDUuODIwMyAwLjcxODc1IDExLjYzNyAxLjQzNzUgMTcuNDU3IDIuMTUyMyAxLjA3MDMgMC4xMzI4MSAyLjE0MDYgMC4yNjU2MyAzLjIxMDkgMC4zOTQ1My0wLjU4MjAzLTAuNTgyMDMtMS4xNjgtMS4xNjgtMS43NS0xLjc1djEzLjc4OSAyMy42MzMgOC4xODM2YzAgMC45NTMxMyAwLjc5Njg4IDEuNzUgMS43NSAxLjc1czEuNzUtMC43OTY4NyAxLjc1LTEuNzV2LTEzLjc4OS0yMy42MzMtOC4xODM2YzAtMS4wNDMtMC44MDQ2OS0xLjYzMjgtMS43NS0xLjc1LTMuMTE3Mi0wLjM4MjgxLTYuMjM0NC0wLjc2OTUzLTkuMzUxNi0xLjE1MjMtNy4xOTUzLTAuODg2NzItMTQuMzkxLTEuNzczNC0yMS41ODYtMi42NjQxLTguMDM1Mi0wLjk5MjE5LTE2LjA3NC0xLjk4NDQtMjQuMTA5LTIuOTcyNy01LjY0MDYtMC42OTUzMS0xMS4yODUtMS4zOTA2LTE2LjkyNi0yLjA4NTktMC45MTAxNi0wLjExMzI4LTEuODI0Mi0wLjIyNjU2LTIuNzM0NC0wLjMzNTk0LTAuMzYzMjgtMC4wNDI5NjgtMC44MzIwMyAwLjA5NzY1Ni0xLjE5MTQgMC4xNDA2Mi0xLjE3NTggMC4xMzY3Mi0yLjM1MTYgMC4yNzczNC0zLjUyMzQgMC40MTQwNi03LjU4OTggMC44OTQ1My0xNS4xOCAxLjc4NTItMjIuNzY2IDIuNjc5Ny0yLjEwNTUgMC4yNDYwOS00LjIwNyAwLjQ5NjA5LTYuMzEyNSAwLjc0MjE5LTAuOTQ1MzEgMC4xMTMyOC0xLjc1IDAuNzEwOTQtMS43NSAxLjc1djEyLjc3NyAyNC4wNjIgMTMuOTUzIDAuMDUwNzgxYzAgMS4wMDc4IDAuODAwNzggMS42NzU4IDEuNzUgMS43NSA1LjQ4MDUgMC40MjU3OCAxMC45NjEgMC44NTE1NiAxNi40NDEgMS4yNzczIDUuNzYxNyAwLjQ0NTMxIDExLjUyMyAwLjg5NDUzIDE3LjI4NSAxLjMzOTggMC43NDIxOSAwLjA1ODU5NCAxLjUyNzMtMC4wNTA3ODEgMi4yNjk1LTAuMDc0MjE4IDIuMjEwOS0wLjA3ODEyNiA0LjQyMTktMC4xNTYyNSA2LjYzMjgtMC4yMzQzOCA3LjE3OTctMC4yNSAxNC4zNjMtMC41MDM5MSAyMS41NDMtMC43NTM5MSA4LjEwNTUtMC4yODUxNiAxNi4yMTEtMC41NzAzMSAyNC4zMTYtMC44NTE1NiA1LjcyNjYtMC4xOTkyMiAxMS40NTctMC40MDIzNCAxNy4xODQtMC42MDE1NiAwLjk0MTQxLTAuMDMxMjUgMS44ODI4LTAuMDY2NDA2IDIuODI4MS0wLjA5NzY1NiAwLjk1MzEyLTAuMDM1MTU2IDEuNzUtMC43Njk1MyAxLjc1LTEuNzUgMC4wMDc4MTMtMC45NDE0MS0wLjc4OTA2LTEuNzk2OS0xLjc0MjItMS43NjE3eiIvPiYjeGE7ICA8cGF0aCBkPSJtNDUuMjI3IDExOGMwLTMuODk4NC0wLjAwMzkwNi03Ljc5NjktMC4wMDM5MDYtMTEuNjk1LTAuMDAzOTA2LTcuOTUzMS0wLjAwMzkwNi0xNS45MS0wLjAwNzgxMi0yMy44NjMtMC4wMDM5MDYtNi4zOTg0LTAuMDAzOTA2LTEyLjc5My0wLjAwNzgxMy0xOS4xOTF2LTIuNjI1YzAtMC45NTMxMi0wLjc5Njg4LTEuNzUtMS43NS0xLjc1cy0xLjc1IDAuNzk2ODgtMS43NSAxLjc1YzAgMy44OTg0IDAuMDAzOTA3IDcuNzk2OSAwLjAwMzkwNyAxMS42OTUgMC4wMDM5MDYgNy45NTMxIDAuMDAzOTA2IDE1LjkxIDAuMDA3ODEyIDIzLjg2MyAwLjAwMzkwNiA2LjM5ODQgMC4wMDM5MDYgMTIuNzkzIDAuMDA3ODEyIDE5LjE5MXYyLjYyNWMwIDAuOTUzMTIgMC43OTY4OCAxLjc1IDEuNzUgMS43NSAwLjk1MzEzIDAgMS43NS0wLjc5Njg4IDEuNzUtMS43NXoiLz4mI3hhOyAgPHBhdGggZD0ibTI3LjI3MyAxMTYuMzF2LTEyLjMzNi0yNC4wNzQtMTYuNDEtMC42NTYyNWMwLTAuOTUzMTItMC43OTY4OC0xLjc1LTEuNzUtMS43NS0wLjk1MzEzIDAtMS43NSAwLjc5Njg4LTEuNzUgMS43NXYxMi4zMzYgMjQuMDc0IDE2LjQxIDAuNjU2MjVjMCAwLjk1MzEyIDAuNzk2ODcgMS43NSAxLjc1IDEuNzUgMC45NTMxMiAwIDEuNzUtMC43OTY4OCAxLjc1LTEuNzV6Ii8+JiN4YTsgIDxwYXRoIGQ9Im01OC43NDYgMTA1LjQxdi0xNy4xMDItMTQuMjM4YzAtMC45NTMxMi0wLjc5Njg4LTEuNzUtMS43NS0xLjc1cy0xLjc1IDAuNzk2ODgtMS43NSAxLjc1djE3LjEwMiAxNC4yMzhjMCAwLjk1MzEyIDAuNzk2ODggMS43NSAxLjc1IDEuNzVzMS43NS0wLjc5Mjk3IDEuNzUtMS43NXoiLz4mI3hhOyAgPHBhdGggZD0ibTcwLjk1NyAxMDUuMTZ2LTE3LjU4Ni0xMS45OTJjMC0wLjk1MzEyLTAuNzk2ODgtMS43NS0xLjc1LTEuNzVzLTEuNzUgMC43OTY4OC0xLjc1IDEuNzV2MTcuNTg2IDExLjk5MmMwIDAuOTUzMTIgMC43OTY4OCAxLjc1IDEuNzUgMS43NXMxLjc1LTAuNzk2ODggMS43NS0xLjc1eiIvPiYjeGE7ICA8cGF0aCBkPSJtODMuMTY0IDEwNC43OHYtMTguMDMxLTkuNTM1MmMwLTAuOTUzMTItMC43OTY4Ny0xLjc1LTEuNzUtMS43NS0wLjk1MzEyIDAtMS43NSAwLjc5Njg4LTEuNzUgMS43NXYxOC4wMzEgOS41MzUyYzAgMC45NTMxMiAwLjc5Njg4IDEuNzUgMS43NSAxLjc1IDAuOTUzMTMgMCAxLjc1LTAuNzkyOTcgMS43NS0xLjc1eiIvPiYjeGE7ICA8cGF0aCBkPSJtOTUuMzc1IDEwNC41M3YtMTguMzYzLTcuNDQxNGMwLTAuOTUzMTItMC43OTY4OC0xLjc1LTEuNzUtMS43NXMtMS43NSAwLjc5Njg4LTEuNzUgMS43NXYxOC4zNjMgNy40NDE0YzAgMC45NTMxMiAwLjc5Njg4IDEuNzUgMS43NSAxLjc1czEuNzUtMC43OTY4OCAxLjc1LTEuNzV6Ii8+JiN4YTsgIDxwYXRoIGQ9Im0xMDcuNTggMTA0LjI4di0xOC42NTYtNS4yNjE3YzAtMC45NTMxMi0wLjc5Njg4LTEuNzUtMS43NS0xLjc1cy0xLjc1IDAuNzk2ODgtMS43NSAxLjc1djE4LjY1NiA1LjI2MTdjMCAwLjk1MzEyIDAuNzk2ODggMS43NSAxLjc1IDEuNzUgMC45NTcwMyAwIDEuNzUtMC43OTI5NyAxLjc1LTEuNzV6Ii8+JiN4YTsgIDxwYXRoIGQ9Im0zNC41NzggOTMuNDUzdi01LjA1NDdjMC0wLjk1MzEzLTAuNzk2ODgtMS43NS0xLjc1LTEuNzVzLTEuNzUgMC43OTY4Ny0xLjc1IDEuNzV2NS4wNTQ3YzAgMC45NTMxMiAwLjc5Njg4IDEuNzUgMS43NSAxLjc1czEuNzUtMC43OTY4OCAxLjc1LTEuNzV6Ii8+JiN4YTsgIDxwYXRoIGQ9Im0xOS45NzcgOTMuNDUzdi01LjA1NDdjMC0wLjk1MzEzLTAuNzk2ODctMS43NS0xLjc1LTEuNzUtMC45NTMxMiAwLTEuNzUgMC43OTY4Ny0xLjc1IDEuNzV2NS4wNTQ3YzAgMC45NTMxMiAwLjc5Njg4IDEuNzUgMS43NSAxLjc1IDAuOTU3MDMgMCAxLjc1LTAuNzk2ODggMS43NS0xLjc1eiIvPiYjeGE7ICA8cGF0aCBkPSJtNjcuNTk0IDkuOTY4OHYxLjM1OTQgMC41MjczNGMwIDAuMDcwMzEyLTAuMDU4NTk0IDAuNzM4MjgtMC4wMDc4MTIgMC4zODY3Mi0wLjAzMTI1IDAuMjE4NzUtMC4wODk4NDQgMC40Mzc1LTAuMTQ4NDQgMC42NDg0NC0wLjE2NDA2IDAuNTg1OTQtMC41MjczNCAxLjEzMjgtMS4xMDU1IDEuNjYwMi0wLjE1NjI1IDAuMTI4OTEtMC4xNjQwNiAwLjE0MDYyLTAuMDIzNDM3IDAuMDMxMjUtMC4wODU5MzggMC4wNjI1LTAuMTc1NzggMC4xMjUtMC4yNjU2MiAwLjE4MzU5LTAuMTc5NjkgMC4xMjEwOS0wLjM3NSAwLjIxODc1LTAuNTY2NDEgMC4zMTY0MS0wLjE4NzUgMC4wODU5MzgtMC4xOTkyMiAwLjA4OTg0NC0wLjAzNTE1NiAwLjAxNTYyNS0wLjEwMTU2IDAuMDM5MDYzLTAuMjA3MDMgMC4wNzQyMTktMC4zMTI1IDAuMTA1NDctMC4yMTA5NCAwLjA2NjQwNi0wLjQyOTY5IDAuMTA5MzgtMC42NDg0NCAwLjE0ODQ0IDAuMzY3MTktMC4wNjY0MDYtMC4xNzk2OSAwLTAuMjEwOTQgMC4wMDM5MDctMC4xMjUgMC4wMDM5MDYtMC4yNTM5MSAwLjAwMzkwNi0wLjM3ODkxIDAtMC4yMjI2Ni0wLjAyNzM0NC0wLjI2OTUzLTAuMDIzNDM4LTAuMTQwNjIgMC4wMDM5MDYtMC41MzUxNi0wLjA3NDIxOS0wLjg4MjgxLTAuMTk1MzEtMS4yNS0wLjM4MjgxLTAuODQ3NjYtMC40MzM1OS0xLjI1NzgtMC45NDE0MS0xLjY4NzUtMS44NjcyIDAuMDU4NTk0IDAuMTEzMjggMC4wNTA3ODEgMC4wNzAzMTMtMC4wMzEyNS0wLjEyODkxLTAuMDM5MDYyLTAuMTI1LTAuMDc0MjE5LTAuMjUzOTEtMC4xMDU0Ny0wLjM3ODkxLTAuMDMxMjUtMC4xMjg5MS0wLjA1NDY4Ny0wLjI2MTcyLTAuMDc0MjE5LTAuMzkwNjIgMC4wMjczNDQgMC4xMjg5MSAwLjAzMTI1IDAuMDgyMDMxIDAuMDAzOTA3LTAuMTQwNjMtMC4wMTE3MTktMC4yMDcwMy0wLjAwMzkwNy0wLjQxNzk3LTAuMDAzOTA3LTAuNjI1di0xLjQ2ODhjLTAuNTgyMDMgMC41ODIwMy0xLjE2OCAxLjE2OC0xLjc1IDEuNzVoMTAuNDk2YzAuOTUzMTIgMCAxLjc1LTAuNzk2ODcgMS43NS0xLjc1IDAtMC45NTMxMi0wLjc5Njg4LTEuNzUtMS43NS0xLjc1aC0xMC40OTZjLTAuOTUzMTIgMC0xLjc1IDAuNzk2ODgtMS43NSAxLjc1IDAgMS43ODEyLTAuMDAzOTA2IDMuNDE0MSAwLjc3MzQ0IDUuMDc4MSAxLjE4MzYgMi41MzUyIDQuMTcxOSA0LjA3NDIgNi45MTAyIDMuNzYxNyAyLjQxMDItMC4yNzM0NCA0LjYwMTYtMS43MTg4IDUuNjI4OS0zLjk1MzEgMC43MjY1Ni0xLjU4MiAwLjY4MzU5LTMuMTk1MyAwLjY4MzU5LTQuODg2NyAwLTAuOTUzMTItMC43OTY4OC0xLjc1LTEuNzUtMS43NS0wLjk1NzAzLTAuMDA3ODEyLTEuNzUzOSAwLjc4OTA2LTEuNzUzOSAxLjc0MjJ6Ii8+JiN4YTsgIDxwYXRoIGQ9Im01Ny43NzMgMjguNzg1YzAuMDUwNzgxIDIuNjM2NyAxLjYxNzIgNC44ODI4IDQuMDQ2OSA1Ljg4MjggMi4zMjQyIDAuOTU3MDMgNS4wNTQ3IDAuMjg1MTYgNi44MDQ3LTEuNDcyNyAxLjg1MTYtMS44NTk0IDIuMjM0NC00LjcxODggMS4xOTE0LTcuMDc0Mi0wLjk5NjA5LTIuMjUtMy4zMTY0LTMuNjEzMy01LjczODMtMy42NjAyIDAuNTgyMDMgMC41ODIwMyAxLjE2OCAxLjE2OCAxLjc1IDEuNzV2LTYuNzI2NmMwLTAuOTUzMTItMC43OTY4OC0xLjc1LTEuNzUtMS43NXMtMS43NSAwLjc5Njg4LTEuNzUgMS43NXY2LjcyNjZjMCAwLjk2ODc1IDAuNzk2ODggMS43MzQ0IDEuNzUgMS43NSAwLjE3MTg4IDAuMDAzOTA2IDAuMzQzNzUgMC4wMTE3MTggMC41MTU2MiAwLjAyNzM0My0wLjM1NTQ3LTAuMDMxMjUgMC4yODEyNSAwLjA4MjAzMSAwLjM1MTU2IDAuMTAxNTYgMC4wMzUxNTcgMC4wMDc4MTIgMC41MjczNCAwLjIwMzEyIDAuMTkxNDEgMC4wNTQ2ODcgMC4xOTUzMSAwLjA4NTkzOCAwLjM4MjgxIDAuMTk5MjIgMC41NjI1IDAuMzEyNSAwLjQzMzU5IDAuMjY5NTMtMC4yMzA0Ny0wLjIxNDg0IDAuMTU2MjUgMC4xMDkzOCAwLjE2NDA2IDAuMTM2NzIgMC4zMDg1OSAwLjI5Mjk3IDAuNDQ5MjIgMC40NDkyMiAwLjMzOTg0IDAuMzc4OTEtMC4xNzU3OC0wLjI2NTYyIDAuMTA5MzcgMC4xNTYyNSAwLjEyMTA5IDAuMTc5NjkgMC4yMTg3NSAwLjM3MTA5IDAuMzA4NTkgMC41NjI1LTAuMTYwMTYtMC4zMjgxMiAwLjA0Mjk2OSAwLjE0ODQ0IDAuMDU0Njg4IDAuMTg3NSAwLjAyMzQzNyAwLjA2NjQwNiAwLjE0ODQ0IDAuNzA3MDMgMC4xMDE1NiAwLjM0NzY2IDAuMDIzNDM4IDAuMTY3OTcgMC4wMjM0MzggMC4zMzk4NCAwLjAyNzM0NCAwLjUwNzgxIDAgMC4wNzQyMTgtMC4wNzQyMTkgMC43MzA0Ny0wLjAxOTUzMSAwLjM5NDUzLTAuMDI3MzQ0IDAuMTY3OTctMC4wNzQyMTkgMC4zMjgxMi0wLjEyMTA5IDAuNDkyMTktMC4wMzEyNSAwLjEwNTQ3LTAuMDcwMzEzIDAuMjEwOTQtMC4xMDkzOCAwLjMxNjQxIDAuMDcwMzEyLTAuMTY0MDYgMC4wNTg1OTQtMC4xNTIzNC0wLjAyNzM0NCAwLjAzNTE1Ni0wLjA3NDIxOCAwLjE0ODQ0LTAuMTYwMTYgMC4yODUxNi0wLjI1IDAuNDIxODgtMC4xMTcxOSAwLjE2Nzk3LTAuMTI1IDAuMTc5NjktMC4wMTk1MzEgMC4wMzkwNjItMC4wNzAzMTMgMC4wODIwMzItMC4xNDA2MiAwLjE2NDA2LTAuMjE4NzUgMC4yNDIxOS0wLjEwOTM4IDAuMTIxMDktMC4yMzQzOCAwLjIyNjU2LTAuMzU1NDcgMC4zMzIwMyAwLjI0NjA5LTAuMjE0ODQtMC4yNTM5MSAwLjE1NjI1LTAuMzE2NDEgMC4xOTE0MS0wLjAyNzM0NCAwLjAxNTYyNC0wLjUwNzgxIDAuMjQ2MDktMC4xNzU3OCAwLjEwOTM3LTAuMjA3MDMgMC4wODU5MzgtMC40MjE4OCAwLjE0NDUzLTAuNjM2NzIgMC4xOTUzMS0wLjUxNTYyIDAuMTI4OTEgMC4zMjgxMi0wLjAxMTcxOS0wLjIxMDk0IDAuMDM5MDYzLTAuMjMwNDcgMC4wMjM0MzctMC40NjQ4NCAwLjAxMTcxOC0wLjY5OTIyIDAtMC41NDI5Ny0wLjAzMTI1IDAuMzEyNSAwLjA3MDMxMi0wLjIxMDk0LTAuMDM5MDYzLTAuMjE4NzUtMC4wNDY4NzUtMC40Mjk2OS0wLjEyMTA5LTAuNjQwNjItMC4xOTUzMSAwLjMzMjAzIDAuMTIxMDktMC4xNDg0NC0wLjA5Mzc1LTAuMTc5NjktMC4xMDkzNy0wLjA1ODU5NC0wLjAzMTI1LTAuNTc0MjItMC4zOTg0NC0wLjMyMDMxLTAuMTkxNDEtMC4xMjg5MS0wLjEwMTU2LTAuMjQyMTktMC4yMTg3NS0wLjM1OTM4LTAuMzMyMDMtMC4wNzQyMTgtMC4wNzgxMjUtMC4xNDg0NC0wLjE2MDE2LTAuMjE4NzUtMC4yNDIxOSAwLjEwNTQ3IDAuMTQwNjMgMC4wOTc2NTYgMC4xMjg5MS0wLjAxOTUzMS0wLjAzOTA2Mi0wLjA5Mzc1LTAuMTM2NzItMC4xNzE4OC0wLjI4MTI1LTAuMjUzOTEtMC40MjE4OC0wLjA4NTkzOC0wLjE4NzUtMC4wOTc2NTctMC4xOTUzMS0wLjAzMTI1LTAuMDM1MTU2LTAuMDM5MDYzLTAuMTA1NDctMC4wNzgxMjUtMC4yMDcwMy0wLjEwOTM4LTAuMzE2NDEtMC4wNTQ2ODgtMC4xNjAxNi0wLjA4NTkzOC0wLjMyNDIyLTAuMTIxMDktMC40OTIxOSAwLjA3MDMxMiAwLjMyODEyLTAuMDE1NjI1LTAuMzEyNS0wLjAxOTUzMS0wLjM5NDUzLTAuMDE5NTMxLTAuOTUzMTItMC43ODEyNS0xLjc1LTEuNzUtMS43NS0wLjkyNTc4IDAuMDA3ODEyLTEuNzUzOSAwLjgwNDY5LTEuNzM4MyAxLjc1Nzh6Ii8+JiN4YTsgIDxwYXRoIGQ9Im0xMC41NTEgNjYuMTA5YzMuMTUyMy0xLjgwODYgNi4zMDQ3LTMuNjE3MiA5LjQ1Ny01LjQyOTcgNi43NS0zLjg3NSAxMy41LTcuNzQ2MSAyMC4yNDYtMTEuNjIxIDYuMjgxMi0zLjYwNTUgMTIuNTYyLTcuMjEwOSAxOC44NDQtMTAuODE2IDEuOTYwOS0xLjEyNSAzLjkyMTktMi4yNSA1Ljg4NjctMy4zNzg5IDEuOTU3LTEuMTIxMSAwLjE5NTMxLTQuMTQ4NC0xLjc2NTYtMy4wMjM0LTMuMTUyMyAxLjgwODYtNi4zMDQ3IDMuNjE3Mi05LjQ1NyA1LjQyOTctNi43NSAzLjg3NS0xMy41IDcuNzQ2MS0yMC4yNDYgMTEuNjIxLTYuMjgxMiAzLjYwNTUtMTIuNTYyIDcuMjEwOS0xOC44NDQgMTAuODE2LTEuOTYwOSAxLjEyNS0zLjkyMTkgMi4yNS01Ljg4NjcgMy4zNzg5LTEuOTU3IDEuMTI1LTAuMTk1MzEgNC4xNDg0IDEuNzY1NiAzLjAyMzR6Ii8+JiN4YTsgIDxwYXRoIGQ9Im02Mi41OTQgMzIuNDczYy0zLjMwNDcgNC4zNjMzLTYuNjA1NSA4LjcyMjctOS45MTAyIDEzLjA4Ni0zLjU2NjQgNC43MDctNy4xMjg5IDkuNDE0MS0xMC42OTUgMTQuMTIxLTAuMDE1NjI1IDAuMDE5NTMxLTAuMDI3MzQzIDAuMDM5MDYyLTAuMDQyOTY5IDAuMDU4NTkzLTAuNTc4MTIgMC43NjE3Mi0wLjEyMTA5IDEuOTU3IDAuNjI4OTEgMi4zOTQ1IDAuODk4NDQgMC41MjczNCAxLjgyMDMgMC4xMzI4MSAyLjM5NDUtMC42Mjg5MSAzLjMwNDctNC4zNjMzIDYuNjA1NS04LjcyMjcgOS45MTAyLTEzLjA4NiAzLjU2NjQtNC43MDcgNy4xMjg5LTkuNDE0MSAxMC42OTUtMTQuMTIxIDAuMDE1NjI1LTAuMDE5NTMxIDAuMDI3MzQzLTAuMDM5MDYzIDAuMDQyOTY5LTAuMDU4NTk0IDAuNTc4MTItMC43NjE3MiAwLjEyMTA5LTEuOTU3LTAuNjI4OTEtMi4zOTQ1LTAuODk4NDQtMC41MjM0NC0xLjgyMDMtMC4xMjg5MS0yLjM5NDUgMC42Mjg5MXoiLz4mI3hhOyAgPHBhdGggZD0ibTYzLjIyMyAzNC44NjdjMi45MjU4IDEuOTc2NiA1Ljg1MTYgMy45NDkyIDguNzgxMiA1LjkyNTggNi4zNzg5IDQuMzA0NyAxMi43NTQgOC42MDU1IDE5LjEzMyAxMi45MSA2LjIyMjcgNC4xOTkyIDEyLjQ0OSA4LjM5ODQgMTguNjcyIDEyLjYwMiAyLjQ5MjIgMS42ODM2IDQuOTg0NCAzLjM2MzMgNy40ODA1IDUuMDQ2OSAwLjc5Mjk3IDAuNTM1MTYgMS45Mzc1IDAuMTU2MjUgMi4zOTQ1LTAuNjI4OTEgMC41MDM5MS0wLjg2MzI4IDAuMTYwMTYtMS44NjMzLTAuNjI4OTEtMi4zOTQ1LTIuOTI1OC0xLjk3NjYtNS44NTE2LTMuOTQ5Mi04Ljc4MTItNS45MjU4LTYuMzc4OS00LjMwNDctMTIuNzU0LTguNjA1NS0xOS4xMzMtMTIuOTEtNi4yMjI3LTQuMTk5Mi0xMi40NDktOC4zOTg0LTE4LjY3Mi0xMi42MDItMi40OTIyLTEuNjgzNi00Ljk4NDQtMy4zNjMzLTcuNDgwNS01LjA0NjktMC43OTI5Ny0wLjUzNTE2LTEuOTM3NS0wLjE1NjI1LTIuMzk0NSAwLjYyODkxLTAuNTAzOTEgMC44NjMyOC0wLjE2MDE2IDEuODYzMyAwLjYyODkxIDIuMzk0NXoiLz4mI3hhOyAgPHBhdGggZD0ibTYyLjg2NyAzNC41OTRjMy4wNTg2IDMuNzAzMSA2LjExNzIgNy40MDIzIDkuMTc1OCAxMS4xMDUgNC44Nzg5IDUuOTA2MiA5Ljc1NzggMTEuODEyIDE0LjYzNyAxNy43MTUgMS4xMjUgMS4zNjMzIDIuMjUgMi43MjI3IDMuMzc1IDQuMDg1OSAwLjYwOTM3IDAuNzM0MzggMS44NDc3IDAuNjI1IDIuNDc2NiAwIDAuNzIyNjYtMC43MjI2NiAwLjYwNTQ3LTEuNzQyMiAwLTIuNDc2Ni0zLjA1ODYtMy43MDMxLTYuMTE3Mi03LjQwMjMtOS4xNzU4LTExLjEwNS00Ljg3ODktNS45MDYyLTkuNzU3OC0xMS44MTItMTQuNjM3LTE3LjcxNS0xLjEyNS0xLjM2MzMtMi4yNS0yLjcyMjctMy4zNzUtNC4wODU5LTAuNjA5MzgtMC43MzQzOC0xLjg0NzctMC42MjUtMi40NzY2IDAtMC43MjI2NiAwLjcyNjU2LTAuNjA1NDcgMS43NDIyIDAgMi40NzY2eiIvPiYjeGE7IDwvZz4mI3hhOzwvc3ZnPg==;fontSize=24;fontStyle=1" parent="1" vertex="1">
                    <mxGeometry x="304.69" y="263.5" width="112" height="112" as="geometry"/>
                </mxCell>
                <mxCell id="JpHulWTNCzh99GzkldUL-6" value="Applications" style="shape=image;verticalLabelPosition=bottom;labelBackgroundColor=none;verticalAlign=top;aspect=fixed;imageAspect=0;image=data:image/svg+xml,PHN2ZyB4bWxucz0iaHR0cDovL3d3dy53My5vcmcvMjAwMC9zdmciIHdpZHRoPSI1OS4yNjIyMDcwMzEyNSIgaGVpZ2h0PSI2Ni41MDAxNjAyMTcyODUxNiIgdmVyc2lvbj0iMS4xIiB2aWV3Qm94PSIzMy4yODE3OTE2ODcwMTE3MiAzMy4wMDY3ODI1MzE3MzgyOCA1OS4yNjIyMDcwMzEyNSA2Ni41MDAxNjAyMTcyODUxNiI+JiN4YTsgPHBhdGggZD0ibTU5LjA3IDY2LjI5My0yNS4wMDgtMTYuMDU1Yy0wLjQxMDE2IDAuNzk2ODgtMC42NDg0NCAxLjY2OC0wLjcwNzAzIDIuNTYyNXY5LjIzMDVsMjkuNDQxIDE3LjI4MXYtNi41NDNjLTAuMDExNzE5LTIuNjY4LTEuNDI1OC01LjEyODktMy43MjY2LTYuNDc2NnptLTEwLjQzIDAuNjg3NWMtMC43NjE3MiAwLjAyNzM0My0xLjQ2MDktMC40MDYyNS0xLjc3NzMtMS4xMDE2LTAuMzEyNS0wLjY5MTQxLTAuMTc5NjktMS41MDM5IDAuMzM5ODQtMi4wNjI1IDAuNTE5NTMtMC41NTQ2OSAxLjMyMDMtMC43NDIxOSAyLjAzNTItMC40NzY1NiAwLjcxMDk0IDAuMjY1NjIgMS4xOTE0IDAuOTM3NSAxLjIxODggMS42OTUzIDAuMDE5NTMxIDAuNS0wLjE2NDA2IDAuOTg0MzgtMC41MDM5MSAxLjM1MTYtMC4zNDM3NSAwLjM2MzI4LTAuODEyNSAwLjU3ODEyLTEuMzEyNSAwLjU5Mzc1em00LjgxMjUgMi42NDg0djAuMDAzOTA2Yy0wLjc2MTcyIDAuMDIzNDM4LTEuNDYwOS0wLjQxMDE2LTEuNzc3My0xLjEwMTYtMC4zMTI1LTAuNjk1MzEtMC4xNzk2OS0xLjUwNzggMC4zMzk4NC0yLjA2MjUgMC41MTk1My0wLjU1ODU5IDEuMzIwMy0wLjc0NjA5IDIuMDM1Mi0wLjQ4MDQ3IDAuNzEwOTQgMC4yNjk1MyAxLjE5MTQgMC45Mzc1IDEuMjE4OCAxLjY5OTIgMC4wMzUxNTcgMS4wMzUyLTAuNzY5NTMgMS45MDIzLTEuODA0NyAxLjk0NTN6bTQuODEyNSAyLjY0ODR2MC4wMDM5MDZjLTAuNzYxNzIgMC4wMjczNDQtMS40NjA5LTAuNDEwMTYtMS43NzczLTEuMTAxNi0wLjMxMjUtMC42OTE0MS0wLjE3OTY5LTEuNTA3OCAwLjMzOTg0LTIuMDYyNSAwLjUxOTUzLTAuNTU0NjkgMS4zMjAzLTAuNzQ2MDkgMi4wMzUyLTAuNDc2NTYgMC43MTA5NCAwLjI2NTYyIDEuMTk1MyAwLjkzMzU5IDEuMjE4OCAxLjY5NTMgMC4wMzkwNjMgMS4wMzUyLTAuNzY5NTMgMS45MDIzLTEuODA0NyAxLjk0NTN6Ii8+JiN4YTsgPHBhdGggdHJhbnNmb3JtPSJzY2FsZSgxLjI4KSIgZD0ibTY5LjM3OSAzNi43MS0xNy44MS0xMC4yNzhjLTEuNDg2Mi0wLjg2MDYtMy4zMjAzLTAuODYwNi00LjgwOTYgMGwtMTcuODEgMTAuMjc4Yy0xLjgxODggMS4wNDA2LTIuOTQ0OSAyLjk3MjQtMi45NDggNS4wNjl2MjAuMDAxYzAgMi4wODc0IDEuMTEzOSA0LjAxNjEgMi45MjA1IDUuMDU5OGwxNy44MzggMTAuMjUxYzEuNDg5MyAwLjg1NzU0IDMuMzIzNCAwLjg1NzU0IDQuODA5NiAwbDE3LjgxLTEwLjI4MWMxLjgwNjYtMS4wNDM3IDIuOTIwNS0yLjk3MjQgMi45MjA1LTUuMDU5OHYtMjAuMDAxIDAuMDAzMDUyYy0wLjAwNjEwMy0yLjA4MTMtMS4xMi00LjAwMDktMi45MjA1LTUuMDQxNXoiIGZpbGw9Im5vbmUiIHN0cm9rZT0iIzAwMCIgc3Ryb2tlLW1pdGVybGltaXQ9IjEwIiBzdHJva2Utd2lkdGg9IjIiLz4mI3hhOyA8cGF0aCB0cmFuc2Zvcm09InNjYWxlKDEuMjgpIiBkPSJtNDEuODcgNDguOTk5IDQuMjc4NiAyLjc0MDVjMS44MTI3IDEuMDQ2OCA0LjA0MDUgMS4wNDY4IDUuODUwMiAwbDQuMTQxMi0yLjM3MTIiIGZpbGw9Im5vbmUiIHN0cm9rZT0iIzAwMCIgc3Ryb2tlLW1pdGVybGltaXQ9IjEwIiBzdHJva2Utd2lkdGg9IjIiLz4mI3hhOyA8cGF0aCB0cmFuc2Zvcm09InNjYWxlKDEuMjgpIiBkPSJtMjYuNjExIDM5LjI0OSAxOS41MzcgMTIuNTQzYzEuODA2NiAxLjA0MzcgMi45MjA1IDIuOTcyNCAyLjkyMDUgNS4wNTk4djExLjcxOSIgZmlsbD0ibm9uZSIgc3Ryb2tlPSIjMDAwIiBzdHJva2UtbWl0ZXJsaW1pdD0iMTAiIHN0cm9rZS13aWR0aD0iMiIvPiYjeGE7IDxwYXRoIHRyYW5zZm9ybT0ic2NhbGUoMS4yOCkiIGQ9Im03Mi4xMSA0MC4yOC0yMC4xMTEgMTEuNTExYy0xLjgwMzYgMS4wNDM3LTIuOTE3NSAyLjk3MjQtMi45MTc1IDUuMDU5OHYyMC44ODkiIGZpbGw9Im5vbmUiIHN0cm9rZT0iIzAwMCIgc3Ryb2tlLW1pdGVybGltaXQ9IjEwIiBzdHJva2Utd2lkdGg9IjIiLz4mI3hhOzwvc3ZnPg==;fontSize=24;fontStyle=1" parent="1" vertex="1">
                    <mxGeometry x="201" y="172" width="68.69" height="78" as="geometry"/>
                </mxCell>
                <mxCell id="JpHulWTNCzh99GzkldUL-8" value="" style="shape=image;verticalLabelPosition=bottom;labelBackgroundColor=#ffffff;verticalAlign=top;aspect=fixed;imageAspect=0;image=data:image/svg+xml,PHN2ZyB4bWxucz0iaHR0cDovL3d3dy53My5vcmcvMjAwMC9zdmciIHdpZHRoPSIxMTUuMjAwMzQwMjcwOTk2MSIgaGVpZ2h0PSI0Mi42MTYwNzM2MDgzOTg0NCIgdmVyc2lvbj0iMS4xIiB2aWV3Qm94PSI2LjM5NDY1Mjg0MzQ3NTM0MiA0Mi42OTI5OTMxNjQwNjI1IDExNS4yMDAzNDAyNzA5OTYxIDQyLjYxNjA3MzYwODM5ODQ0Ij4mI3hhOyA8cGF0aCBkPSJtMTIxLjU5IDgwLjcwM2MwLTAuMDM5MDYzIDAuMDA3ODEyIDAuNjEzMjggMC4wMDM5MDYgMC41NzQyMmwtMS4xODM2LTIxLjExNy0wLjA5Mzc1LTEuMzg2N2MwLTEuNjMyOC0wLjk5MjE5LTMuMDcwMy0yLjYyNS0zLjIzMDUtMS42MzI4LTAuMTYwMTYtMy4wNjI1IDEuMDM1Mi0zLjIxODggMi42NjhsLTAuMDM1MTU2IDAuNDY0ODQtMS4yOTMgMTAuNDhjLTAuMDA3ODEzLTAuMDA3ODEyLTAuMDE1NjI2LTAuMDExNzE5LTAuMDIzNDM4LTAuMDIzNDM4LTIuMjQyMi0yLjI0MjItNS4wNjI1LTQuODkwNi04LjQ2NDgtNy42OTE0LTQuNzUzOS0zLjg5MDYtMTAuNjM3LTguMDgyLTE3LjUzOS0xMS41Ny02Ljg3NS0zLjQ3NjYtMTQuODQtNi4yMTA5LTIzLjA5NC02Ljk1MzEtMS4wMzkxLTAuMDkzNzUtMi4xMDU1LTAuMTMyODEtMy4xNTIzLTAuMTk5MjItMS4wNDY5LTAuMDU0Njg4LTEuOTg4My0wLjAwMzkwNi0yLjk4NDQtMC4wMTE3MTlsLTAuODA0NjkgMC4wMDM5MDctMC43NTM5MSAwLjA1NDY4Ny0xLjUwMzkgMC4xMTMyOGMtMSAwLjA3NDIxOS0xLjk5NjEgMC4xNDg0NC0yLjk4ODMgMC4yMjI2Ni0wLjk5MjE5IDAuMDQyOTY5LTEuOTc2NiAwLjIxMDk0LTIuOTQ5MiAwLjM1OTM4LTAuOTcyNjYgMC4xNDg0NC0xLjk0NTMgMC4yOTY4Ny0yLjkwNjIgMC40NDE0MS0wLjk2NDg0IDAuMTE3MTktMS45MTQxIDAuMzM1OTQtMi44NDc3IDAuNTYyNS0wLjkzNzUgMC4yMTQ4NC0xLjg2MzMgMC40Mjk2OS0yLjc4NTIgMC42NDA2Mi03LjMzNTkgMS44NTU1LTEzLjgzNiA0LjcxMDktMTguOTQxIDcuODUxNi01LjEyODkgMy4xMTcyLTguOTIxOSA2LjM3ODktMTEuMzgzIDguODIwMy0yLjQ3MjcgMi40NDE0LTMuNjI4OSA0LjA1ODYtMy42Mjg5IDQuMDU4NnMxLjI3MzQtMS41MjczIDMuODk4NC0zLjc1NzhjMi42MTcyLTIuMjI2NiA2LjYwNTUtNS4xNjAyIDExLjgzMi03LjgxNjQgNS4yMDMxLTIuNjgzNiAxMS43MDMtNC45NjA5IDE4Ljg1Mi02LjIwMzEgMC44OTQ1My0wLjEzNjcyIDEuODAwOC0wLjI4MTI1IDIuNzEwOS0wLjQxNzk3IDAuOTA2MjUtMC4xNDg0NCAxLjgyMDMtMC4zMDQ2OSAyLjc1MzktMC4zNDc2NiAwLjkyOTY5LTAuMDcwMzEzIDEuODYzMy0wLjE3OTY5IDIuODAwOC0wLjI1IDAuOTM3NS0wLjA3MDMxMyA4LjUwMzkgMC4xODM1OSA4LjUwMzkgMC4xODM1OSAwLjk2NDg0IDAuMDgyMDMyIDIgMC4wOTc2NTcgMi45MTQxIDAuMjIyNjYgMC45MTc5NyAwLjEzMjgxIDEuODIwMyAwLjE0ODQ0IDIuNzM4MyAwLjMwNDY5IDcuNDUzMSAxLjI0NjEgMTQuNDk2IDQuMjM0NCAyMC41NTkgNy44OTg0IDYuMDc0MiAzLjY3MTkgMTEuMjE5IDcuOTMzNiAxNS4zNCAxMS44NjcgMi43MzQ0IDIuNjIxMSA1LjAxNTYgNS4wNzgxIDYuODUxNiA3LjE5NTNsLTEwLjIxMS0xLjA5NzctMC40NTMxMi0wLjA1MDc4MmMtMS42Mjg5LTAuMTc1NzgtMy4wOTM4IDAuOTQ5MjItMy4yNjk1IDIuNTgyLTAuMTc1NzggMS42Mjg5IDAuOTI5NjkgMy4yMTQ4IDIuNTU4NiAzLjIxNDhsLTAuMDU4NTk0LTAuMDAzOTA2djAuMTEzMjhsMjAuMjcgNS4zMjQyYzEuNzE4OCAwLjg5ODQ0IDMuOTIxOSAwLjYxNzE5IDUuMzMyLTAuODU1NDcgMC43ODEyNS0wLjgxMjUgMS4xODc1LTEuODU5NCAxLjIzODMtMi45MDYyIDAuMDExNzE4LTAuMTA5MzggMC4wMzUxNTYtMC4yMTg3NSAwLjAzNTE1Ni0wLjMzMjAzeiIvPiYjeGE7PC9zdmc+;rotation=30;" parent="1" vertex="1">
                    <mxGeometry x="140" y="94.5" width="115" height="43" as="geometry"/>
                </mxCell>
                <mxCell id="JpHulWTNCzh99GzkldUL-9" value="" style="shape=image;verticalLabelPosition=bottom;labelBackgroundColor=#ffffff;verticalAlign=top;aspect=fixed;imageAspect=0;image=data:image/svg+xml,PHN2ZyB4bWxucz0iaHR0cDovL3d3dy53My5vcmcvMjAwMC9zdmciIHdpZHRoPSIxMTUuMjAwMzQwMjcwOTk2MSIgaGVpZ2h0PSI0Mi42MTYwNzM2MDgzOTg0NCIgdmVyc2lvbj0iMS4xIiB2aWV3Qm94PSI2LjM5NDY1Mjg0MzQ3NTM0MiA0Mi42OTI5OTMxNjQwNjI1IDExNS4yMDAzNDAyNzA5OTYxIDQyLjYxNjA3MzYwODM5ODQ0Ij4mI3hhOyA8cGF0aCBkPSJtMTIxLjU5IDgwLjcwM2MwLTAuMDM5MDYzIDAuMDA3ODEyIDAuNjEzMjggMC4wMDM5MDYgMC41NzQyMmwtMS4xODM2LTIxLjExNy0wLjA5Mzc1LTEuMzg2N2MwLTEuNjMyOC0wLjk5MjE5LTMuMDcwMy0yLjYyNS0zLjIzMDUtMS42MzI4LTAuMTYwMTYtMy4wNjI1IDEuMDM1Mi0zLjIxODggMi42NjhsLTAuMDM1MTU2IDAuNDY0ODQtMS4yOTMgMTAuNDhjLTAuMDA3ODEzLTAuMDA3ODEyLTAuMDE1NjI2LTAuMDExNzE5LTAuMDIzNDM4LTAuMDIzNDM4LTIuMjQyMi0yLjI0MjItNS4wNjI1LTQuODkwNi04LjQ2NDgtNy42OTE0LTQuNzUzOS0zLjg5MDYtMTAuNjM3LTguMDgyLTE3LjUzOS0xMS41Ny02Ljg3NS0zLjQ3NjYtMTQuODQtNi4yMTA5LTIzLjA5NC02Ljk1MzEtMS4wMzkxLTAuMDkzNzUtMi4xMDU1LTAuMTMyODEtMy4xNTIzLTAuMTk5MjItMS4wNDY5LTAuMDU0Njg4LTEuOTg4My0wLjAwMzkwNi0yLjk4NDQtMC4wMTE3MTlsLTAuODA0NjkgMC4wMDM5MDctMC43NTM5MSAwLjA1NDY4Ny0xLjUwMzkgMC4xMTMyOGMtMSAwLjA3NDIxOS0xLjk5NjEgMC4xNDg0NC0yLjk4ODMgMC4yMjI2Ni0wLjk5MjE5IDAuMDQyOTY5LTEuOTc2NiAwLjIxMDk0LTIuOTQ5MiAwLjM1OTM4LTAuOTcyNjYgMC4xNDg0NC0xLjk0NTMgMC4yOTY4Ny0yLjkwNjIgMC40NDE0MS0wLjk2NDg0IDAuMTE3MTktMS45MTQxIDAuMzM1OTQtMi44NDc3IDAuNTYyNS0wLjkzNzUgMC4yMTQ4NC0xLjg2MzMgMC40Mjk2OS0yLjc4NTIgMC42NDA2Mi03LjMzNTkgMS44NTU1LTEzLjgzNiA0LjcxMDktMTguOTQxIDcuODUxNi01LjEyODkgMy4xMTcyLTguOTIxOSA2LjM3ODktMTEuMzgzIDguODIwMy0yLjQ3MjcgMi40NDE0LTMuNjI4OSA0LjA1ODYtMy42Mjg5IDQuMDU4NnMxLjI3MzQtMS41MjczIDMuODk4NC0zLjc1NzhjMi42MTcyLTIuMjI2NiA2LjYwNTUtNS4xNjAyIDExLjgzMi03LjgxNjQgNS4yMDMxLTIuNjgzNiAxMS43MDMtNC45NjA5IDE4Ljg1Mi02LjIwMzEgMC44OTQ1My0wLjEzNjcyIDEuODAwOC0wLjI4MTI1IDIuNzEwOS0wLjQxNzk3IDAuOTA2MjUtMC4xNDg0NCAxLjgyMDMtMC4zMDQ2OSAyLjc1MzktMC4zNDc2NiAwLjkyOTY5LTAuMDcwMzEzIDEuODYzMy0wLjE3OTY5IDIuODAwOC0wLjI1IDAuOTM3NS0wLjA3MDMxMyA4LjUwMzkgMC4xODM1OSA4LjUwMzkgMC4xODM1OSAwLjk2NDg0IDAuMDgyMDMyIDIgMC4wOTc2NTcgMi45MTQxIDAuMjIyNjYgMC45MTc5NyAwLjEzMjgxIDEuODIwMyAwLjE0ODQ0IDIuNzM4MyAwLjMwNDY5IDcuNDUzMSAxLjI0NjEgMTQuNDk2IDQuMjM0NCAyMC41NTkgNy44OTg0IDYuMDc0MiAzLjY3MTkgMTEuMjE5IDcuOTMzNiAxNS4zNCAxMS44NjcgMi43MzQ0IDIuNjIxMSA1LjAxNTYgNS4wNzgxIDYuODUxNiA3LjE5NTNsLTEwLjIxMS0xLjA5NzctMC40NTMxMi0wLjA1MDc4MmMtMS42Mjg5LTAuMTc1NzgtMy4wOTM4IDAuOTQ5MjItMy4yNjk1IDIuNTgyLTAuMTc1NzggMS42Mjg5IDAuOTI5NjkgMy4yMTQ4IDIuNTU4NiAzLjIxNDhsLTAuMDU4NTk0LTAuMDAzOTA2djAuMTEzMjhsMjAuMjcgNS4zMjQyYzEuNzE4OCAwLjg5ODQ0IDMuOTIxOSAwLjYxNzE5IDUuMzMyLTAuODU1NDcgMC43ODEyNS0wLjgxMjUgMS4xODc1LTEuODU5NCAxLjIzODMtMi45MDYyIDAuMDExNzE4LTAuMTA5MzggMC4wMzUxNTYtMC4yMTg3NSAwLjAzNTE1Ni0wLjMzMjAzeiIvPiYjeGE7PC9zdmc+;rotation=30;" parent="1" vertex="1">
                    <mxGeometry x="269.69" y="190" width="115" height="43" as="geometry"/>
                </mxCell>
                <mxCell id="JpHulWTNCzh99GzkldUL-10" value="" style="shape=image;verticalLabelPosition=bottom;labelBackgroundColor=#ffffff;verticalAlign=top;aspect=fixed;imageAspect=0;image=data:image/svg+xml,PHN2ZyB4bWxucz0iaHR0cDovL3d3dy53My5vcmcvMjAwMC9zdmciIHdpZHRoPSIxMTUuMjAwMzQwMjcwOTk2MSIgaGVpZ2h0PSI0Mi42MTYwNzM2MDgzOTg0NCIgdmVyc2lvbj0iMS4xIiB2aWV3Qm94PSI2LjM5NDY1Mjg0MzQ3NTM0MiA0Mi42OTI5OTMxNjQwNjI1IDExNS4yMDAzNDAyNzA5OTYxIDQyLjYxNjA3MzYwODM5ODQ0Ij4mI3hhOyA8cGF0aCBkPSJtMTIxLjU5IDgwLjcwM2MwLTAuMDM5MDYzIDAuMDA3ODEyIDAuNjEzMjggMC4wMDM5MDYgMC41NzQyMmwtMS4xODM2LTIxLjExNy0wLjA5Mzc1LTEuMzg2N2MwLTEuNjMyOC0wLjk5MjE5LTMuMDcwMy0yLjYyNS0zLjIzMDUtMS42MzI4LTAuMTYwMTYtMy4wNjI1IDEuMDM1Mi0zLjIxODggMi42NjhsLTAuMDM1MTU2IDAuNDY0ODQtMS4yOTMgMTAuNDhjLTAuMDA3ODEzLTAuMDA3ODEyLTAuMDE1NjI2LTAuMDExNzE5LTAuMDIzNDM4LTAuMDIzNDM4LTIuMjQyMi0yLjI0MjItNS4wNjI1LTQuODkwNi04LjQ2NDgtNy42OTE0LTQuNzUzOS0zLjg5MDYtMTAuNjM3LTguMDgyLTE3LjUzOS0xMS41Ny02Ljg3NS0zLjQ3NjYtMTQuODQtNi4yMTA5LTIzLjA5NC02Ljk1MzEtMS4wMzkxLTAuMDkzNzUtMi4xMDU1LTAuMTMyODEtMy4xNTIzLTAuMTk5MjItMS4wNDY5LTAuMDU0Njg4LTEuOTg4My0wLjAwMzkwNi0yLjk4NDQtMC4wMTE3MTlsLTAuODA0NjkgMC4wMDM5MDctMC43NTM5MSAwLjA1NDY4Ny0xLjUwMzkgMC4xMTMyOGMtMSAwLjA3NDIxOS0xLjk5NjEgMC4xNDg0NC0yLjk4ODMgMC4yMjI2Ni0wLjk5MjE5IDAuMDQyOTY5LTEuOTc2NiAwLjIxMDk0LTIuOTQ5MiAwLjM1OTM4LTAuOTcyNjYgMC4xNDg0NC0xLjk0NTMgMC4yOTY4Ny0yLjkwNjIgMC40NDE0MS0wLjk2NDg0IDAuMTE3MTktMS45MTQxIDAuMzM1OTQtMi44NDc3IDAuNTYyNS0wLjkzNzUgMC4yMTQ4NC0xLjg2MzMgMC40Mjk2OS0yLjc4NTIgMC42NDA2Mi03LjMzNTkgMS44NTU1LTEzLjgzNiA0LjcxMDktMTguOTQxIDcuODUxNi01LjEyODkgMy4xMTcyLTguOTIxOSA2LjM3ODktMTEuMzgzIDguODIwMy0yLjQ3MjcgMi40NDE0LTMuNjI4OSA0LjA1ODYtMy42Mjg5IDQuMDU4NnMxLjI3MzQtMS41MjczIDMuODk4NC0zLjc1NzhjMi42MTcyLTIuMjI2NiA2LjYwNTUtNS4xNjAyIDExLjgzMi03LjgxNjQgNS4yMDMxLTIuNjgzNiAxMS43MDMtNC45NjA5IDE4Ljg1Mi02LjIwMzEgMC44OTQ1My0wLjEzNjcyIDEuODAwOC0wLjI4MTI1IDIuNzEwOS0wLjQxNzk3IDAuOTA2MjUtMC4xNDg0NCAxLjgyMDMtMC4zMDQ2OSAyLjc1MzktMC4zNDc2NiAwLjkyOTY5LTAuMDcwMzEzIDEuODYzMy0wLjE3OTY5IDIuODAwOC0wLjI1IDAuOTM3NS0wLjA3MDMxMyA4LjUwMzkgMC4xODM1OSA4LjUwMzkgMC4xODM1OSAwLjk2NDg0IDAuMDgyMDMyIDIgMC4wOTc2NTcgMi45MTQxIDAuMjIyNjYgMC45MTc5NyAwLjEzMjgxIDEuODIwMyAwLjE0ODQ0IDIuNzM4MyAwLjMwNDY5IDcuNDUzMSAxLjI0NjEgMTQuNDk2IDQuMjM0NCAyMC41NTkgNy44OTg0IDYuMDc0MiAzLjY3MTkgMTEuMjE5IDcuOTMzNiAxNS4zNCAxMS44NjcgMi43MzQ0IDIuNjIxMSA1LjAxNTYgNS4wNzgxIDYuODUxNiA3LjE5NTNsLTEwLjIxMS0xLjA5NzctMC40NTMxMi0wLjA1MDc4MmMtMS42Mjg5LTAuMTc1NzgtMy4wOTM4IDAuOTQ5MjItMy4yNjk1IDIuNTgyLTAuMTc1NzggMS42Mjg5IDAuOTI5NjkgMy4yMTQ4IDIuNTU4NiAzLjIxNDhsLTAuMDU4NTk0LTAuMDAzOTA2djAuMTEzMjhsMjAuMjcgNS4zMjQyYzEuNzE4OCAwLjg5ODQ0IDMuOTIxOSAwLjYxNzE5IDUuMzMyLTAuODU1NDcgMC43ODEyNS0wLjgxMjUgMS4xODc1LTEuODU5NCAxLjIzODMtMi45MDYyIDAuMDExNzE4LTAuMTA5MzggMC4wMzUxNTYtMC4yMTg3NSAwLjAzNTE1Ni0wLjMzMjAzeiIvPiYjeGE7PC9zdmc+;rotation=30;" parent="1" vertex="1">
                    <mxGeometry x="384.69" y="298" width="115" height="43" as="geometry"/>
                </mxCell>
                <mxCell id="JpHulWTNCzh99GzkldUL-11" value="" style="shape=image;verticalLabelPosition=bottom;labelBackgroundColor=#ffffff;verticalAlign=top;aspect=fixed;imageAspect=0;image=data:image/svg+xml,PHN2ZyB4bWxucz0iaHR0cDovL3d3dy53My5vcmcvMjAwMC9zdmciIHdpZHRoPSIxMTUuMjAwMzQwMjcwOTk2MSIgaGVpZ2h0PSI0Mi42MTYwNzM2MDgzOTg0NCIgdmVyc2lvbj0iMS4xIiB2aWV3Qm94PSI2LjM5NDY1Mjg0MzQ3NTM0MiA0Mi42OTI5OTMxNjQwNjI1IDExNS4yMDAzNDAyNzA5OTYxIDQyLjYxNjA3MzYwODM5ODQ0Ij4mI3hhOyA8cGF0aCBkPSJtMTIxLjU5IDgwLjcwM2MwLTAuMDM5MDYzIDAuMDA3ODEyIDAuNjEzMjggMC4wMDM5MDYgMC41NzQyMmwtMS4xODM2LTIxLjExNy0wLjA5Mzc1LTEuMzg2N2MwLTEuNjMyOC0wLjk5MjE5LTMuMDcwMy0yLjYyNS0zLjIzMDUtMS42MzI4LTAuMTYwMTYtMy4wNjI1IDEuMDM1Mi0zLjIxODggMi42NjhsLTAuMDM1MTU2IDAuNDY0ODQtMS4yOTMgMTAuNDhjLTAuMDA3ODEzLTAuMDA3ODEyLTAuMDE1NjI2LTAuMDExNzE5LTAuMDIzNDM4LTAuMDIzNDM4LTIuMjQyMi0yLjI0MjItNS4wNjI1LTQuODkwNi04LjQ2NDgtNy42OTE0LTQuNzUzOS0zLjg5MDYtMTAuNjM3LTguMDgyLTE3LjUzOS0xMS41Ny02Ljg3NS0zLjQ3NjYtMTQuODQtNi4yMTA5LTIzLjA5NC02Ljk1MzEtMS4wMzkxLTAuMDkzNzUtMi4xMDU1LTAuMTMyODEtMy4xNTIzLTAuMTk5MjItMS4wNDY5LTAuMDU0Njg4LTEuOTg4My0wLjAwMzkwNi0yLjk4NDQtMC4wMTE3MTlsLTAuODA0NjkgMC4wMDM5MDctMC43NTM5MSAwLjA1NDY4Ny0xLjUwMzkgMC4xMTMyOGMtMSAwLjA3NDIxOS0xLjk5NjEgMC4xNDg0NC0yLjk4ODMgMC4yMjI2Ni0wLjk5MjE5IDAuMDQyOTY5LTEuOTc2NiAwLjIxMDk0LTIuOTQ5MiAwLjM1OTM4LTAuOTcyNjYgMC4xNDg0NC0xLjk0NTMgMC4yOTY4Ny0yLjkwNjIgMC40NDE0MS0wLjk2NDg0IDAuMTE3MTktMS45MTQxIDAuMzM1OTQtMi44NDc3IDAuNTYyNS0wLjkzNzUgMC4yMTQ4NC0xLjg2MzMgMC40Mjk2OS0yLjc4NTIgMC42NDA2Mi03LjMzNTkgMS44NTU1LTEzLjgzNiA0LjcxMDktMTguOTQxIDcuODUxNi01LjEyODkgMy4xMTcyLTguOTIxOSA2LjM3ODktMTEuMzgzIDguODIwMy0yLjQ3MjcgMi40NDE0LTMuNjI4OSA0LjA1ODYtMy42Mjg5IDQuMDU4NnMxLjI3MzQtMS41MjczIDMuODk4NC0zLjc1NzhjMi42MTcyLTIuMjI2NiA2LjYwNTUtNS4xNjAyIDExLjgzMi03LjgxNjQgNS4yMDMxLTIuNjgzNiAxMS43MDMtNC45NjA5IDE4Ljg1Mi02LjIwMzEgMC44OTQ1My0wLjEzNjcyIDEuODAwOC0wLjI4MTI1IDIuNzEwOS0wLjQxNzk3IDAuOTA2MjUtMC4xNDg0NCAxLjgyMDMtMC4zMDQ2OSAyLjc1MzktMC4zNDc2NiAwLjkyOTY5LTAuMDcwMzEzIDEuODYzMy0wLjE3OTY5IDIuODAwOC0wLjI1IDAuOTM3NS0wLjA3MDMxMyA4LjUwMzkgMC4xODM1OSA4LjUwMzkgMC4xODM1OSAwLjk2NDg0IDAuMDgyMDMyIDIgMC4wOTc2NTcgMi45MTQxIDAuMjIyNjYgMC45MTc5NyAwLjEzMjgxIDEuODIwMyAwLjE0ODQ0IDIuNzM4MyAwLjMwNDY5IDcuNDUzMSAxLjI0NjEgMTQuNDk2IDQuMjM0NCAyMC41NTkgNy44OTg0IDYuMDc0MiAzLjY3MTkgMTEuMjE5IDcuOTMzNiAxNS4zNCAxMS44NjcgMi43MzQ0IDIuNjIxMSA1LjAxNTYgNS4wNzgxIDYuODUxNiA3LjE5NTNsLTEwLjIxMS0xLjA5NzctMC40NTMxMi0wLjA1MDc4MmMtMS42Mjg5LTAuMTc1NzgtMy4wOTM4IDAuOTQ5MjItMy4yNjk1IDIuNTgyLTAuMTc1NzggMS42Mjg5IDAuOTI5NjkgMy4yMTQ4IDIuNTU4NiAzLjIxNDhsLTAuMDU4NTk0LTAuMDAzOTA2djAuMTEzMjhsMjAuMjcgNS4zMjQyYzEuNzE4OCAwLjg5ODQ0IDMuOTIxOSAwLjYxNzE5IDUuMzMyLTAuODU1NDcgMC43ODEyNS0wLjgxMjUgMS4xODc1LTEuODU5NCAxLjIzODMtMi45MDYyIDAuMDExNzE4LTAuMTA5MzggMC4wMzUxNTYtMC4yMTg3NSAwLjAzNTE1Ni0wLjMzMjAzeiIvPiYjeGE7PC9zdmc+;rotation=30;" parent="1" vertex="1">
                    <mxGeometry x="510" y="420" width="115" height="43" as="geometry"/>
                </mxCell>
            </root>
        </mxGraphModel>
    </diagram>
</mxfile>
